# xmcd
# 
# Track frame offsets:
#     150
#     27678
#     38515
#     62172
#     86678
#     109579
#     142377
#     167817
#     187467
#     216593
#     240099
#     260449
#     284261
# 
# Disc length: 3899 seconds
# 
# Revision: 1
# Processed by: cddbd v1.4PL0 Copyright (c) Steve Scherf et al.
# Submitted via: BonkEnc v0.9
# 
DISCID=c90f390d
DTITLE=Chris Anderson - Old Friends
DYEAR=1995
DGENRE=Blues
TTITLE0=You're Gonna Need Me
TTITLE1=Slow Burn
TTITLE2=Old Friends
TTITLE3=One Step Ahead Of The Blues
TTITLE4=Crying For My Baby
TTITLE5=Life Is Hard
TTITLE6=Ain't Giving Up On Love
TTITLE7=Trust Me
TTITLE8=Jake's Song
TTITLE9=When Will You Be Satisfied
TTITLE10=One Good Woman
TTITLE11=Driving Out Of The Blues
TTITLE12=Noname
EXTD=
EXTT0=
EXTT1=
EXTT2=
EXTT3=
EXTT4=
EXTT5=
EXTT6=
EXTT7=
EXTT8=
EXTT9=
EXTT10=
EXTT11=
EXTT12=
PLAYORDER=
